solid OpenSCAD_Model
  facet normal 0 0 1
    outer loop
      vertex -2 2.5 10
      vertex 2 -2.5 10
      vertex 2 2.5 10
    endloop
  endfacet
  facet normal 0 0 1
    outer loop
      vertex 2 -2.5 10
      vertex -2 2.5 10
      vertex -2 -2.5 10
    endloop
  endfacet
  facet normal 0 0 -1
    outer loop
      vertex -2 -2.5 -10
      vertex 2 2.5 -10
      vertex 2 -2.5 -10
    endloop
  endfacet
  facet normal 0 0 -1
    outer loop
      vertex 2 2.5 -10
      vertex -2 -2.5 -10
      vertex -2 2.5 -10
    endloop
  endfacet
  facet normal 0 -1 0
    outer loop
      vertex -2 -2.5 -10
      vertex 2 -2.5 10
      vertex -2 -2.5 10
    endloop
  endfacet
  facet normal 0 -1 0
    outer loop
      vertex 2 -2.5 10
      vertex -2 -2.5 -10
      vertex 2 -2.5 -10
    endloop
  endfacet
  facet normal 1 0 0
    outer loop
      vertex 2 -2.5 10
      vertex 2 2.5 -10
      vertex 2 2.5 10
    endloop
  endfacet
  facet normal 1 0 0
    outer loop
      vertex 2 2.5 -10
      vertex 2 -2.5 10
      vertex 2 -2.5 -10
    endloop
  endfacet
  facet normal 0 1 0
    outer loop
      vertex 2 2.5 -10
      vertex -2 2.5 10
      vertex 2 2.5 10
    endloop
  endfacet
  facet normal 0 1 0
    outer loop
      vertex -2 2.5 10
      vertex 2 2.5 -10
      vertex -2 2.5 -10
    endloop
  endfacet
  facet normal -1 0 0
    outer loop
      vertex -2 -2.5 -10
      vertex -2 2.5 10
      vertex -2 2.5 -10
    endloop
  endfacet
  facet normal -1 0 0
    outer loop
      vertex -2 2.5 10
      vertex -2 -2.5 -10
      vertex -2 -2.5 10
    endloop
  endfacet
endsolid OpenSCAD_Model
