solid OpenSCAD_Model
  facet normal 0.555569174358399 0.8314703196763711 0
    outer loop
      vertex 30.652568817138672 21.760120391845703 -7.5
      vertex 30 22.196151733398438 7.5
      vertex 30.652568817138672 21.760120391845703 7.5
    endloop
  endfacet
  facet normal 0.555569174358399 0.8314703196763711 0
    outer loop
      vertex 30 22.196151733398438 7.5
      vertex 30.652568817138672 21.760120391845703 -7.5
      vertex 30 22.196151733398438 -7.5
    endloop
  endfacet
  facet normal 1 0 0
    outer loop
      vertex 33 -20 7.5
      vertex 33 17 -7.5
      vertex 33 17 7.5
    endloop
  endfacet
  facet normal 1 0 0
    outer loop
      vertex 33 17 -7.5
      vertex 33 -20 7.5
      vertex 33 -20 -7.5
    endloop
  endfacet
  facet normal 0.7518403549106678 0.65934519087334 0
    outer loop
      vertex 31.760120391845703 20.652568817138672 7.5
      vertex 31.24264144897461 21.24264144897461 -7.5
      vertex 31.24264144897461 21.24264144897461 7.5
    endloop
  endfacet
  facet normal 0.7518403549106678 0.65934519087334 0
    outer loop
      vertex 31.24264144897461 21.24264144897461 -7.5
      vertex 31.760120391845703 20.652568817138672 7.5
      vertex 31.760120391845703 20.652568817138672 -7.5
    endloop
  endfacet
  facet normal -1 0 0
    outer loop
      vertex -33 -20 -7.5
      vertex -33 17 7.5
      vertex -33 17 -7.5
    endloop
  endfacet
  facet normal -1 0 0
    outer loop
      vertex -33 17 7.5
      vertex -33 -20 -7.5
      vertex -33 -20 7.5
    endloop
  endfacet
  facet normal 0.9807852151871463 0.1950906498792374 0
    outer loop
      vertex 32.94866943359375 17.783157348632812 7.5
      vertex 32.795555114746094 18.552913665771484 -7.5
      vertex 32.795555114746094 18.552913665771484 7.5
    endloop
  endfacet
  facet normal 0.9807852151871463 0.1950906498792374 0
    outer loop
      vertex 32.795555114746094 18.552913665771484 -7.5
      vertex 32.94866943359375 17.783157348632812 7.5
      vertex 32.94866943359375 17.783157348632812 -7.5
    endloop
  endfacet
  facet normal 0.8314703196763711 0.555569174358399 0
    outer loop
      vertex 32.19615173339844 20 7.5
      vertex 31.760120391845703 20.652568817138672 -7.5
      vertex 31.760120391845703 20.652568817138672 7.5
    endloop
  endfacet
  facet normal 0.8314703196763711 0.555569174358399 0
    outer loop
      vertex 31.760120391845703 20.652568817138672 -7.5
      vertex 32.19615173339844 20 7.5
      vertex 32.19615173339844 20 -7.5
    endloop
  endfacet
  facet normal -0.44228996693536377 0.8968721119247242 0
    outer loop
      vertex -29.296100616455078 22.543277740478516 -7.5
      vertex -30 22.196151733398438 7.5
      vertex -29.296100616455078 22.543277740478516 7.5
    endloop
  endfacet
  facet normal -0.44228996693536377 0.8968721119247242 0
    outer loop
      vertex -30 22.196151733398438 7.5
      vertex -29.296100616455078 22.543277740478516 -7.5
      vertex -30 22.196151733398438 -7.5
    endloop
  endfacet
  facet normal 0 1 0
    outer loop
      vertex 27 23 -7.5
      vertex -27 23 7.5
      vertex 27 23 7.5
    endloop
  endfacet
  facet normal 0 1 0
    outer loop
      vertex -27 23 7.5
      vertex 27 23 -7.5
      vertex -27 23 -7.5
    endloop
  endfacet
  facet normal -0.65934519087334 0.7518403549106678 0
    outer loop
      vertex -30.652568817138672 21.760120391845703 -7.5
      vertex -31.24264144897461 21.24264144897461 7.5
      vertex -30.652568817138672 21.760120391845703 7.5
    endloop
  endfacet
  facet normal -0.65934519087334 0.7518403549106678 0
    outer loop
      vertex -31.24264144897461 21.24264144897461 7.5
      vertex -30.652568817138672 21.760120391845703 -7.5
      vertex -31.24264144897461 21.24264144897461 -7.5
    endloop
  endfacet
  facet normal 0.06540277633868208 0.9978589463682692 0
    outer loop
      vertex 27.783157348632812 22.94866943359375 -7.5
      vertex 27 23 7.5
      vertex 27.783157348632812 22.94866943359375 7.5
    endloop
  endfacet
  facet normal 0.06540277633868208 0.9978589463682692 0
    outer loop
      vertex 27 23 7.5
      vertex 27.783157348632812 22.94866943359375 -7.5
      vertex 27 23 -7.5
    endloop
  endfacet
  facet normal 0 0 -1
    outer loop
      vertex -33 -20 -7.5
      vertex -30 16 -7.5
      vertex -30 -20 -7.5
    endloop
  endfacet
  facet normal 0 0 -1
    outer loop
      vertex -32.94866943359375 17.783157348632812 -7.5
      vertex -30 16 -7.5
      vertex -33 17 -7.5
    endloop
  endfacet
  facet normal 0 0 -1
    outer loop
      vertex -30 16 -7.5
      vertex -30.652568817138672 21.760120391845703 -7.5
      vertex -30 22.196151733398438 -7.5
    endloop
  endfacet
  facet normal 0 0 -1
    outer loop
      vertex -30 16 -7.5
      vertex -31.24264144897461 21.24264144897461 -7.5
      vertex -30.652568817138672 21.760120391845703 -7.5
    endloop
  endfacet
  facet normal 0 0 -1
    outer loop
      vertex -30 16 -7.5
      vertex -31.760120391845703 20.652568817138672 -7.5
      vertex -31.24264144897461 21.24264144897461 -7.5
    endloop
  endfacet
  facet normal 0 0 -1
    outer loop
      vertex -30 16 -7.5
      vertex -32.19615173339844 20 -7.5
      vertex -31.760120391845703 20.652568817138672 -7.5
    endloop
  endfacet
  facet normal 0 0 -1
    outer loop
      vertex -30 16 -7.5
      vertex -32.543277740478516 19.296100616455078 -7.5
      vertex -32.19615173339844 20 -7.5
    endloop
  endfacet
  facet normal 0 0 -1
    outer loop
      vertex -30 16 -7.5
      vertex -32.795555114746094 18.552913665771484 -7.5
      vertex -32.543277740478516 19.296100616455078 -7.5
    endloop
  endfacet
  facet normal 0 0 -1
    outer loop
      vertex -30 16 -7.5
      vertex -33 -20 -7.5
      vertex -33 17 -7.5
    endloop
  endfacet
  facet normal 0 0 -1
    outer loop
      vertex -30 16 -7.5
      vertex -32.94866943359375 17.783157348632812 -7.5
      vertex -32.795555114746094 18.552913665771484 -7.5
    endloop
  endfacet
  facet normal 0 0 -1
    outer loop
      vertex 30 16 -7.5
      vertex 33 17 -7.5
      vertex 33 -20 -7.5
    endloop
  endfacet
  facet normal 0 0 -1
    outer loop
      vertex 29.965778350830078 16.522104263305664 -7.5
      vertex 33 17 -7.5
      vertex 30 16 -7.5
    endloop
  endfacet
  facet normal 0 0 -1
    outer loop
      vertex 29.86370277404785 17.035274505615234 -7.5
      vertex 33 17 -7.5
      vertex 29.965778350830078 16.522104263305664 -7.5
    endloop
  endfacet
  facet normal 0 0 -1
    outer loop
      vertex 33 17 -7.5
      vertex 29.86370277404785 17.035274505615234 -7.5
      vertex 32.94866943359375 17.783157348632812 -7.5
    endloop
  endfacet
  facet normal 0 0 -1
    outer loop
      vertex 29.695518493652344 17.530733108520508 -7.5
      vertex 32.94866943359375 17.783157348632812 -7.5
      vertex 29.86370277404785 17.035274505615234 -7.5
    endloop
  endfacet
  facet normal 0 0 -1
    outer loop
      vertex 32.94866943359375 17.783157348632812 -7.5
      vertex 29.695518493652344 17.530733108520508 -7.5
      vertex 32.795555114746094 18.552913665771484 -7.5
    endloop
  endfacet
  facet normal 0 0 -1
    outer loop
      vertex 32.795555114746094 18.552913665771484 -7.5
      vertex 29.695518493652344 17.530733108520508 -7.5
      vertex 32.543277740478516 19.296100616455078 -7.5
    endloop
  endfacet
  facet normal 0 0 -1
    outer loop
      vertex 30 16 -7.5
      vertex 33 -20 -7.5
      vertex 30 -20 -7.5
    endloop
  endfacet
  facet normal 0 0 -1
    outer loop
      vertex 29.464099884033203 18 -7.5
      vertex 32.543277740478516 19.296100616455078 -7.5
      vertex 29.695518493652344 17.530733108520508 -7.5
    endloop
  endfacet
  facet normal 0 0 -1
    outer loop
      vertex 32.543277740478516 19.296100616455078 -7.5
      vertex 29.464099884033203 18 -7.5
      vertex 32.19615173339844 20 -7.5
    endloop
  endfacet
  facet normal 0 0 -1
    outer loop
      vertex 29.173412322998047 18.43504524230957 -7.5
      vertex 32.19615173339844 20 -7.5
      vertex 29.464099884033203 18 -7.5
    endloop
  endfacet
  facet normal 0 0 -1
    outer loop
      vertex 32.19615173339844 20 -7.5
      vertex 29.173412322998047 18.43504524230957 -7.5
      vertex 31.760120391845703 20.652568817138672 -7.5
    endloop
  endfacet
  facet normal 0 0 -1
    outer loop
      vertex 28.828426361083984 18.828426361083984 -7.5
      vertex 31.760120391845703 20.652568817138672 -7.5
      vertex 29.173412322998047 18.43504524230957 -7.5
    endloop
  endfacet
  facet normal 0 0 -1
    outer loop
      vertex 31.760120391845703 20.652568817138672 -7.5
      vertex 28.828426361083984 18.828426361083984 -7.5
      vertex 31.24264144897461 21.24264144897461 -7.5
    endloop
  endfacet
  facet normal 0 0 -1
    outer loop
      vertex 31.24264144897461 21.24264144897461 -7.5
      vertex 28.828426361083984 18.828426361083984 -7.5
      vertex 30.652568817138672 21.760120391845703 -7.5
    endloop
  endfacet
  facet normal 0 0 -1
    outer loop
      vertex 28.43504524230957 19.173412322998047 -7.5
      vertex 30.652568817138672 21.760120391845703 -7.5
      vertex 28.828426361083984 18.828426361083984 -7.5
    endloop
  endfacet
  facet normal 0 0 -1
    outer loop
      vertex 30.652568817138672 21.760120391845703 -7.5
      vertex 28.43504524230957 19.173412322998047 -7.5
      vertex 30 22.196151733398438 -7.5
    endloop
  endfacet
  facet normal 0 0 -1
    outer loop
      vertex 28 19.464099884033203 -7.5
      vertex 30 22.196151733398438 -7.5
      vertex 28.43504524230957 19.173412322998047 -7.5
    endloop
  endfacet
  facet normal 0 0 -1
    outer loop
      vertex 30 22.196151733398438 -7.5
      vertex 28 19.464099884033203 -7.5
      vertex 29.296100616455078 22.543277740478516 -7.5
    endloop
  endfacet
  facet normal 0 0 -1
    outer loop
      vertex 27.530733108520508 19.695518493652344 -7.5
      vertex 29.296100616455078 22.543277740478516 -7.5
      vertex 28 19.464099884033203 -7.5
    endloop
  endfacet
  facet normal 0 0 -1
    outer loop
      vertex 29.296100616455078 22.543277740478516 -7.5
      vertex 27.530733108520508 19.695518493652344 -7.5
      vertex 28.552913665771484 22.795555114746094 -7.5
    endloop
  endfacet
  facet normal 0 0 -1
    outer loop
      vertex 28.552913665771484 22.795555114746094 -7.5
      vertex 27.530733108520508 19.695518493652344 -7.5
      vertex 27.783157348632812 22.94866943359375 -7.5
    endloop
  endfacet
  facet normal 0 0 -1
    outer loop
      vertex 27.035274505615234 19.86370277404785 -7.5
      vertex 27.783157348632812 22.94866943359375 -7.5
      vertex 27.530733108520508 19.695518493652344 -7.5
    endloop
  endfacet
  facet normal 0 0 -1
    outer loop
      vertex 27.035274505615234 19.86370277404785 -7.5
      vertex 27 23 -7.5
      vertex 27.783157348632812 22.94866943359375 -7.5
    endloop
  endfacet
  facet normal 0 0 -1
    outer loop
      vertex 26.522104263305664 19.965778350830078 -7.5
      vertex 27 23 -7.5
      vertex 27.035274505615234 19.86370277404785 -7.5
    endloop
  endfacet
  facet normal 0 0 -1
    outer loop
      vertex 26 20 -7.5
      vertex 27 23 -7.5
      vertex 26.522104263305664 19.965778350830078 -7.5
    endloop
  endfacet
  facet normal 0 0 -1
    outer loop
      vertex -26 20 -7.5
      vertex 27 23 -7.5
      vertex 26 20 -7.5
    endloop
  endfacet
  facet normal 0 0 -1
    outer loop
      vertex -26 20 -7.5
      vertex -27 23 -7.5
      vertex 27 23 -7.5
    endloop
  endfacet
  facet normal 0 0 -1
    outer loop
      vertex -26.522104263305664 19.965778350830078 -7.5
      vertex -27 23 -7.5
      vertex -26 20 -7.5
    endloop
  endfacet
  facet normal 0 0 -1
    outer loop
      vertex -27.035274505615234 19.86370277404785 -7.5
      vertex -27 23 -7.5
      vertex -26.522104263305664 19.965778350830078 -7.5
    endloop
  endfacet
  facet normal 0 0 -1
    outer loop
      vertex -27.783157348632812 22.94866943359375 -7.5
      vertex -27.035274505615234 19.86370277404785 -7.5
      vertex -27.530733108520508 19.695518493652344 -7.5
    endloop
  endfacet
  facet normal 0 0 -1
    outer loop
      vertex -27.035274505615234 19.86370277404785 -7.5
      vertex -27.783157348632812 22.94866943359375 -7.5
      vertex -27 23 -7.5
    endloop
  endfacet
  facet normal 0 0 -1
    outer loop
      vertex -29.296100616455078 22.543277740478516 -7.5
      vertex -27.530733108520508 19.695518493652344 -7.5
      vertex -28 19.464099884033203 -7.5
    endloop
  endfacet
  facet normal 0 0 -1
    outer loop
      vertex -30 22.196151733398438 -7.5
      vertex -28 19.464099884033203 -7.5
      vertex -28.43504524230957 19.173412322998047 -7.5
    endloop
  endfacet
  facet normal 0 0 -1
    outer loop
      vertex -27.530733108520508 19.695518493652344 -7.5
      vertex -28.552913665771484 22.795555114746094 -7.5
      vertex -27.783157348632812 22.94866943359375 -7.5
    endloop
  endfacet
  facet normal 0 0 -1
    outer loop
      vertex -30 22.196151733398438 -7.5
      vertex -28.43504524230957 19.173412322998047 -7.5
      vertex -28.828426361083984 18.828426361083984 -7.5
    endloop
  endfacet
  facet normal 0 0 -1
    outer loop
      vertex -30 22.196151733398438 -7.5
      vertex -28.828426361083984 18.828426361083984 -7.5
      vertex -29.173412322998047 18.43504524230957 -7.5
    endloop
  endfacet
  facet normal 0 0 -1
    outer loop
      vertex -27.530733108520508 19.695518493652344 -7.5
      vertex -29.296100616455078 22.543277740478516 -7.5
      vertex -28.552913665771484 22.795555114746094 -7.5
    endloop
  endfacet
  facet normal 0 0 -1
    outer loop
      vertex -30 22.196151733398438 -7.5
      vertex -29.173412322998047 18.43504524230957 -7.5
      vertex -29.464099884033203 18 -7.5
    endloop
  endfacet
  facet normal 0 0 -1
    outer loop
      vertex -30 22.196151733398438 -7.5
      vertex -29.464099884033203 18 -7.5
      vertex -29.695518493652344 17.530733108520508 -7.5
    endloop
  endfacet
  facet normal 0 0 -1
    outer loop
      vertex -30 22.196151733398438 -7.5
      vertex -29.695518493652344 17.530733108520508 -7.5
      vertex -29.86370277404785 17.035274505615234 -7.5
    endloop
  endfacet
  facet normal 0 0 -1
    outer loop
      vertex -30 22.196151733398438 -7.5
      vertex -29.86370277404785 17.035274505615234 -7.5
      vertex -29.965778350830078 16.522104263305664 -7.5
    endloop
  endfacet
  facet normal 0 0 -1
    outer loop
      vertex -28 19.464099884033203 -7.5
      vertex -30 22.196151733398438 -7.5
      vertex -29.296100616455078 22.543277740478516 -7.5
    endloop
  endfacet
  facet normal 0 0 -1
    outer loop
      vertex -30 22.196151733398438 -7.5
      vertex -29.965778350830078 16.522104263305664 -7.5
      vertex -30 16 -7.5
    endloop
  endfacet
  facet normal 0.44228996693536377 0.8968721119247242 0
    outer loop
      vertex 30 22.196151733398438 -7.5
      vertex 29.296100616455078 22.543277740478516 7.5
      vertex 30 22.196151733398438 7.5
    endloop
  endfacet
  facet normal 0.44228996693536377 0.8968721119247242 0
    outer loop
      vertex 29.296100616455078 22.543277740478516 7.5
      vertex 30 22.196151733398438 -7.5
      vertex 29.296100616455078 22.543277740478516 -7.5
    endloop
  endfacet
  facet normal 0.8968721119247242 0.44228996693536377 0
    outer loop
      vertex 32.543277740478516 19.296100616455078 7.5
      vertex 32.19615173339844 20 -7.5
      vertex 32.19615173339844 20 7.5
    endloop
  endfacet
  facet normal 0.8968721119247242 0.44228996693536377 0
    outer loop
      vertex 32.19615173339844 20 -7.5
      vertex 32.543277740478516 19.296100616455078 7.5
      vertex 32.543277740478516 19.296100616455078 -7.5
    endloop
  endfacet
  facet normal -0.06540277633868208 0.9978589463682692 0
    outer loop
      vertex -27 23 -7.5
      vertex -27.783157348632812 22.94866943359375 7.5
      vertex -27 23 7.5
    endloop
  endfacet
  facet normal -0.06540277633868208 0.9978589463682692 0
    outer loop
      vertex -27.783157348632812 22.94866943359375 7.5
      vertex -27 23 -7.5
      vertex -27.783157348632812 22.94866943359375 -7.5
    endloop
  endfacet
  facet normal -0.555569174358399 0.8314703196763711 0
    outer loop
      vertex -30 22.196151733398438 -7.5
      vertex -30.652568817138672 21.760120391845703 7.5
      vertex -30 22.196151733398438 7.5
    endloop
  endfacet
  facet normal -0.555569174358399 0.8314703196763711 0
    outer loop
      vertex -30.652568817138672 21.760120391845703 7.5
      vertex -30 22.196151733398438 -7.5
      vertex -30.652568817138672 21.760120391845703 -7.5
    endloop
  endfacet
  facet normal -0.9978589463682692 0.06540277633868208 0
    outer loop
      vertex -33 17 -7.5
      vertex -32.94866943359375 17.783157348632812 7.5
      vertex -32.94866943359375 17.783157348632812 -7.5
    endloop
  endfacet
  facet normal -0.9978589463682692 0.06540277633868208 0
    outer loop
      vertex -32.94866943359375 17.783157348632812 7.5
      vertex -33 17 -7.5
      vertex -33 17 7.5
    endloop
  endfacet
  facet normal -0.9807852151871463 0.1950906498792374 0
    outer loop
      vertex -32.94866943359375 17.783157348632812 -7.5
      vertex -32.795555114746094 18.552913665771484 7.5
      vertex -32.795555114746094 18.552913665771484 -7.5
    endloop
  endfacet
  facet normal -0.9807852151871463 0.1950906498792374 0
    outer loop
      vertex -32.795555114746094 18.552913665771484 7.5
      vertex -32.94866943359375 17.783157348632812 -7.5
      vertex -32.94866943359375 17.783157348632812 7.5
    endloop
  endfacet
  facet normal -0.8968721119247242 0.44228996693536377 0
    outer loop
      vertex -32.543277740478516 19.296100616455078 -7.5
      vertex -32.19615173339844 20 7.5
      vertex -32.19615173339844 20 -7.5
    endloop
  endfacet
  facet normal -0.8968721119247242 0.44228996693536377 0
    outer loop
      vertex -32.19615173339844 20 7.5
      vertex -32.543277740478516 19.296100616455078 -7.5
      vertex -32.543277740478516 19.296100616455078 7.5
    endloop
  endfacet
  facet normal -0.1950906498792374 0.9807852151871463 0
    outer loop
      vertex -27.783157348632812 22.94866943359375 -7.5
      vertex -28.552913665771484 22.795555114746094 7.5
      vertex -27.783157348632812 22.94866943359375 7.5
    endloop
  endfacet
  facet normal -0.1950906498792374 0.9807852151871463 0
    outer loop
      vertex -28.552913665771484 22.795555114746094 7.5
      vertex -27.783157348632812 22.94866943359375 -7.5
      vertex -28.552913665771484 22.795555114746094 -7.5
    endloop
  endfacet
  facet normal 0.65934519087334 0.7518403549106678 0
    outer loop
      vertex 31.24264144897461 21.24264144897461 -7.5
      vertex 30.652568817138672 21.760120391845703 7.5
      vertex 31.24264144897461 21.24264144897461 7.5
    endloop
  endfacet
  facet normal 0.65934519087334 0.7518403549106678 0
    outer loop
      vertex 30.652568817138672 21.760120391845703 7.5
      vertex 31.24264144897461 21.24264144897461 -7.5
      vertex 30.652568817138672 21.760120391845703 -7.5
    endloop
  endfacet
  facet normal 0.32143877834851586 0.9469303626845078 0
    outer loop
      vertex 29.296100616455078 22.543277740478516 -7.5
      vertex 28.552913665771484 22.795555114746094 7.5
      vertex 29.296100616455078 22.543277740478516 7.5
    endloop
  endfacet
  facet normal 0.32143877834851586 0.9469303626845078 0
    outer loop
      vertex 28.552913665771484 22.795555114746094 7.5
      vertex 29.296100616455078 22.543277740478516 -7.5
      vertex 28.552913665771484 22.795555114746094 -7.5
    endloop
  endfacet
  facet normal 0.9469303626845078 0.32143877834851586 0
    outer loop
      vertex 32.795555114746094 18.552913665771484 7.5
      vertex 32.543277740478516 19.296100616455078 -7.5
      vertex 32.543277740478516 19.296100616455078 7.5
    endloop
  endfacet
  facet normal 0.9469303626845078 0.32143877834851586 0
    outer loop
      vertex 32.543277740478516 19.296100616455078 -7.5
      vertex 32.795555114746094 18.552913665771484 7.5
      vertex 32.795555114746094 18.552913665771484 -7.5
    endloop
  endfacet
  facet normal 0.9978589463682692 0.06540277633868208 0
    outer loop
      vertex 33 17 7.5
      vertex 32.94866943359375 17.783157348632812 -7.5
      vertex 32.94866943359375 17.783157348632812 7.5
    endloop
  endfacet
  facet normal 0.9978589463682692 0.06540277633868208 0
    outer loop
      vertex 32.94866943359375 17.783157348632812 -7.5
      vertex 33 17 7.5
      vertex 33 17 -7.5
    endloop
  endfacet
  facet normal -0.9469303626845078 0.32143877834851586 0
    outer loop
      vertex -32.795555114746094 18.552913665771484 -7.5
      vertex -32.543277740478516 19.296100616455078 7.5
      vertex -32.543277740478516 19.296100616455078 -7.5
    endloop
  endfacet
  facet normal -0.9469303626845078 0.32143877834851586 0
    outer loop
      vertex -32.543277740478516 19.296100616455078 7.5
      vertex -32.795555114746094 18.552913665771484 -7.5
      vertex -32.795555114746094 18.552913665771484 7.5
    endloop
  endfacet
  facet normal -0.7518403549106678 0.65934519087334 0
    outer loop
      vertex -31.760120391845703 20.652568817138672 -7.5
      vertex -31.24264144897461 21.24264144897461 7.5
      vertex -31.24264144897461 21.24264144897461 -7.5
    endloop
  endfacet
  facet normal -0.7518403549106678 0.65934519087334 0
    outer loop
      vertex -31.24264144897461 21.24264144897461 7.5
      vertex -31.760120391845703 20.652568817138672 -7.5
      vertex -31.760120391845703 20.652568817138672 7.5
    endloop
  endfacet
  facet normal -0.8314703196763711 0.555569174358399 0
    outer loop
      vertex -32.19615173339844 20 -7.5
      vertex -31.760120391845703 20.652568817138672 7.5
      vertex -31.760120391845703 20.652568817138672 -7.5
    endloop
  endfacet
  facet normal -0.8314703196763711 0.555569174358399 0
    outer loop
      vertex -31.760120391845703 20.652568817138672 7.5
      vertex -32.19615173339844 20 -7.5
      vertex -32.19615173339844 20 7.5
    endloop
  endfacet
  facet normal 0.1950906498792374 0.9807852151871463 0
    outer loop
      vertex 28.552913665771484 22.795555114746094 -7.5
      vertex 27.783157348632812 22.94866943359375 7.5
      vertex 28.552913665771484 22.795555114746094 7.5
    endloop
  endfacet
  facet normal 0.1950906498792374 0.9807852151871463 0
    outer loop
      vertex 27.783157348632812 22.94866943359375 7.5
      vertex 28.552913665771484 22.795555114746094 -7.5
      vertex 27.783157348632812 22.94866943359375 -7.5
    endloop
  endfacet
  facet normal -0.32143877834851586 0.9469303626845078 0
    outer loop
      vertex -28.552913665771484 22.795555114746094 -7.5
      vertex -29.296100616455078 22.543277740478516 7.5
      vertex -28.552913665771484 22.795555114746094 7.5
    endloop
  endfacet
  facet normal -0.32143877834851586 0.9469303626845078 0
    outer loop
      vertex -29.296100616455078 22.543277740478516 7.5
      vertex -28.552913665771484 22.795555114746094 -7.5
      vertex -29.296100616455078 22.543277740478516 -7.5
    endloop
  endfacet
  facet normal 0 0 1
    outer loop
      vertex 33 17 7.5
      vertex 29.965778350830078 16.522104263305664 7.5
      vertex 30 16 7.5
    endloop
  endfacet
  facet normal 0 0 1
    outer loop
      vertex 30.652568817138672 21.760120391845703 7.5
      vertex 29.86370277404785 17.035274505615234 7.5
      vertex 29.965778350830078 16.522104263305664 7.5
    endloop
  endfacet
  facet normal 0 0 1
    outer loop
      vertex 30.652568817138672 21.760120391845703 7.5
      vertex 29.695518493652344 17.530733108520508 7.5
      vertex 29.86370277404785 17.035274505615234 7.5
    endloop
  endfacet
  facet normal 0 0 1
    outer loop
      vertex 30.652568817138672 21.760120391845703 7.5
      vertex 29.464099884033203 18 7.5
      vertex 29.695518493652344 17.530733108520508 7.5
    endloop
  endfacet
  facet normal 0 0 1
    outer loop
      vertex 28 19.464099884033203 7.5
      vertex 30 22.196151733398438 7.5
      vertex 29.296100616455078 22.543277740478516 7.5
    endloop
  endfacet
  facet normal 0 0 1
    outer loop
      vertex 30.652568817138672 21.760120391845703 7.5
      vertex 29.173412322998047 18.43504524230957 7.5
      vertex 29.464099884033203 18 7.5
    endloop
  endfacet
  facet normal 0 0 1
    outer loop
      vertex 30.652568817138672 21.760120391845703 7.5
      vertex 28.828426361083984 18.828426361083984 7.5
      vertex 29.173412322998047 18.43504524230957 7.5
    endloop
  endfacet
  facet normal 0 0 1
    outer loop
      vertex 27.530733108520508 19.695518493652344 7.5
      vertex 29.296100616455078 22.543277740478516 7.5
      vertex 28.552913665771484 22.795555114746094 7.5
    endloop
  endfacet
  facet normal 0 0 1
    outer loop
      vertex 30.652568817138672 21.760120391845703 7.5
      vertex 28.43504524230957 19.173412322998047 7.5
      vertex 28.828426361083984 18.828426361083984 7.5
    endloop
  endfacet
  facet normal 0 0 1
    outer loop
      vertex 30 22.196151733398438 7.5
      vertex 28 19.464099884033203 7.5
      vertex 28.43504524230957 19.173412322998047 7.5
    endloop
  endfacet
  facet normal 0 0 1
    outer loop
      vertex 27.530733108520508 19.695518493652344 7.5
      vertex 28.552913665771484 22.795555114746094 7.5
      vertex 27.783157348632812 22.94866943359375 7.5
    endloop
  endfacet
  facet normal 0 0 1
    outer loop
      vertex 29.296100616455078 22.543277740478516 7.5
      vertex 27.530733108520508 19.695518493652344 7.5
      vertex 28 19.464099884033203 7.5
    endloop
  endfacet
  facet normal 0 0 1
    outer loop
      vertex 27.783157348632812 22.94866943359375 7.5
      vertex 27.035274505615234 19.86370277404785 7.5
      vertex 27.530733108520508 19.695518493652344 7.5
    endloop
  endfacet
  facet normal 0 0 1
    outer loop
      vertex 27 23 7.5
      vertex 27.035274505615234 19.86370277404785 7.5
      vertex 27.783157348632812 22.94866943359375 7.5
    endloop
  endfacet
  facet normal 0 0 1
    outer loop
      vertex 27 23 7.5
      vertex 26.522104263305664 19.965778350830078 7.5
      vertex 27.035274505615234 19.86370277404785 7.5
    endloop
  endfacet
  facet normal 0 0 1
    outer loop
      vertex 27 23 7.5
      vertex 26 20 7.5
      vertex 26.522104263305664 19.965778350830078 7.5
    endloop
  endfacet
  facet normal 0 0 1
    outer loop
      vertex 27 23 7.5
      vertex -26 20 7.5
      vertex 26 20 7.5
    endloop
  endfacet
  facet normal 0 0 1
    outer loop
      vertex -27 23 7.5
      vertex -26 20 7.5
      vertex 27 23 7.5
    endloop
  endfacet
  facet normal 0 0 1
    outer loop
      vertex -27 23 7.5
      vertex -26.522104263305664 19.965778350830078 7.5
      vertex -26 20 7.5
    endloop
  endfacet
  facet normal 0 0 1
    outer loop
      vertex -27 23 7.5
      vertex -27.035274505615234 19.86370277404785 7.5
      vertex -26.522104263305664 19.965778350830078 7.5
    endloop
  endfacet
  facet normal 0 0 1
    outer loop
      vertex -27.783157348632812 22.94866943359375 7.5
      vertex -27.035274505615234 19.86370277404785 7.5
      vertex -27 23 7.5
    endloop
  endfacet
  facet normal 0 0 1
    outer loop
      vertex -27.035274505615234 19.86370277404785 7.5
      vertex -27.783157348632812 22.94866943359375 7.5
      vertex -27.530733108520508 19.695518493652344 7.5
    endloop
  endfacet
  facet normal 0 0 1
    outer loop
      vertex -28.552913665771484 22.795555114746094 7.5
      vertex -27.530733108520508 19.695518493652344 7.5
      vertex -27.783157348632812 22.94866943359375 7.5
    endloop
  endfacet
  facet normal 0 0 1
    outer loop
      vertex -29.296100616455078 22.543277740478516 7.5
      vertex -27.530733108520508 19.695518493652344 7.5
      vertex -28.552913665771484 22.795555114746094 7.5
    endloop
  endfacet
  facet normal 0 0 1
    outer loop
      vertex -27.530733108520508 19.695518493652344 7.5
      vertex -29.296100616455078 22.543277740478516 7.5
      vertex -28 19.464099884033203 7.5
    endloop
  endfacet
  facet normal 0 0 1
    outer loop
      vertex -30 22.196151733398438 7.5
      vertex -28 19.464099884033203 7.5
      vertex -29.296100616455078 22.543277740478516 7.5
    endloop
  endfacet
  facet normal 0 0 1
    outer loop
      vertex -28 19.464099884033203 7.5
      vertex -30 22.196151733398438 7.5
      vertex -28.43504524230957 19.173412322998047 7.5
    endloop
  endfacet
  facet normal 0 0 1
    outer loop
      vertex -30.652568817138672 21.760120391845703 7.5
      vertex -28.43504524230957 19.173412322998047 7.5
      vertex -30 22.196151733398438 7.5
    endloop
  endfacet
  facet normal 0 0 1
    outer loop
      vertex -28.43504524230957 19.173412322998047 7.5
      vertex -30.652568817138672 21.760120391845703 7.5
      vertex -28.828426361083984 18.828426361083984 7.5
    endloop
  endfacet
  facet normal 0 0 1
    outer loop
      vertex -31.24264144897461 21.24264144897461 7.5
      vertex -28.828426361083984 18.828426361083984 7.5
      vertex -30.652568817138672 21.760120391845703 7.5
    endloop
  endfacet
  facet normal 0 0 1
    outer loop
      vertex -31.760120391845703 20.652568817138672 7.5
      vertex -28.828426361083984 18.828426361083984 7.5
      vertex -31.24264144897461 21.24264144897461 7.5
    endloop
  endfacet
  facet normal 0 0 1
    outer loop
      vertex -28.828426361083984 18.828426361083984 7.5
      vertex -31.760120391845703 20.652568817138672 7.5
      vertex -29.173412322998047 18.43504524230957 7.5
    endloop
  endfacet
  facet normal 0 0 1
    outer loop
      vertex -32.19615173339844 20 7.5
      vertex -29.173412322998047 18.43504524230957 7.5
      vertex -31.760120391845703 20.652568817138672 7.5
    endloop
  endfacet
  facet normal 0 0 1
    outer loop
      vertex -29.173412322998047 18.43504524230957 7.5
      vertex -32.19615173339844 20 7.5
      vertex -29.464099884033203 18 7.5
    endloop
  endfacet
  facet normal 0 0 1
    outer loop
      vertex -32.543277740478516 19.296100616455078 7.5
      vertex -29.464099884033203 18 7.5
      vertex -32.19615173339844 20 7.5
    endloop
  endfacet
  facet normal 0 0 1
    outer loop
      vertex -29.464099884033203 18 7.5
      vertex -32.543277740478516 19.296100616455078 7.5
      vertex -29.695518493652344 17.530733108520508 7.5
    endloop
  endfacet
  facet normal 0 0 1
    outer loop
      vertex -32.795555114746094 18.552913665771484 7.5
      vertex -29.695518493652344 17.530733108520508 7.5
      vertex -32.543277740478516 19.296100616455078 7.5
    endloop
  endfacet
  facet normal 0 0 1
    outer loop
      vertex -32.94866943359375 17.783157348632812 7.5
      vertex -29.695518493652344 17.530733108520508 7.5
      vertex -32.795555114746094 18.552913665771484 7.5
    endloop
  endfacet
  facet normal 0 0 1
    outer loop
      vertex -29.695518493652344 17.530733108520508 7.5
      vertex -32.94866943359375 17.783157348632812 7.5
      vertex -29.86370277404785 17.035274505615234 7.5
    endloop
  endfacet
  facet normal 0 0 1
    outer loop
      vertex -33 17 7.5
      vertex -29.86370277404785 17.035274505615234 7.5
      vertex -32.94866943359375 17.783157348632812 7.5
    endloop
  endfacet
  facet normal 0 0 1
    outer loop
      vertex -29.86370277404785 17.035274505615234 7.5
      vertex -33 17 7.5
      vertex -29.965778350830078 16.522104263305664 7.5
    endloop
  endfacet
  facet normal 0 0 1
    outer loop
      vertex -29.965778350830078 16.522104263305664 7.5
      vertex -33 17 7.5
      vertex -30 16 7.5
    endloop
  endfacet
  facet normal 0 0 1
    outer loop
      vertex -33 -20 7.5
      vertex -30 16 7.5
      vertex -33 17 7.5
    endloop
  endfacet
  facet normal 0 0 1
    outer loop
      vertex -30 16 7.5
      vertex -33 -20 7.5
      vertex -30 -20 7.5
    endloop
  endfacet
  facet normal 0 0 1
    outer loop
      vertex 29.965778350830078 16.522104263305664 7.5
      vertex 33 17 7.5
      vertex 32.94866943359375 17.783157348632812 7.5
    endloop
  endfacet
  facet normal 0 0 1
    outer loop
      vertex 29.965778350830078 16.522104263305664 7.5
      vertex 32.94866943359375 17.783157348632812 7.5
      vertex 32.795555114746094 18.552913665771484 7.5
    endloop
  endfacet
  facet normal 0 0 1
    outer loop
      vertex 29.965778350830078 16.522104263305664 7.5
      vertex 32.795555114746094 18.552913665771484 7.5
      vertex 32.543277740478516 19.296100616455078 7.5
    endloop
  endfacet
  facet normal 0 0 1
    outer loop
      vertex 29.965778350830078 16.522104263305664 7.5
      vertex 32.543277740478516 19.296100616455078 7.5
      vertex 32.19615173339844 20 7.5
    endloop
  endfacet
  facet normal 0 0 1
    outer loop
      vertex 29.965778350830078 16.522104263305664 7.5
      vertex 32.19615173339844 20 7.5
      vertex 31.760120391845703 20.652568817138672 7.5
    endloop
  endfacet
  facet normal 0 0 1
    outer loop
      vertex 29.965778350830078 16.522104263305664 7.5
      vertex 31.760120391845703 20.652568817138672 7.5
      vertex 31.24264144897461 21.24264144897461 7.5
    endloop
  endfacet
  facet normal 0 0 1
    outer loop
      vertex 29.965778350830078 16.522104263305664 7.5
      vertex 31.24264144897461 21.24264144897461 7.5
      vertex 30.652568817138672 21.760120391845703 7.5
    endloop
  endfacet
  facet normal 0 0 1
    outer loop
      vertex 28.43504524230957 19.173412322998047 7.5
      vertex 30.652568817138672 21.760120391845703 7.5
      vertex 30 22.196151733398438 7.5
    endloop
  endfacet
  facet normal 0 0 1
    outer loop
      vertex 33 17 7.5
      vertex 30 16 7.5
      vertex 33 -20 7.5
    endloop
  endfacet
  facet normal 0 0 1
    outer loop
      vertex 33 -20 7.5
      vertex 30 16 7.5
      vertex 30 -20 7.5
    endloop
  endfacet
  facet normal 0 -1 0
    outer loop
      vertex -33 -20 -7.5
      vertex -30 -20 7.5
      vertex -33 -20 7.5
    endloop
  endfacet
  facet normal 0 -1 0
    outer loop
      vertex -30 -20 7.5
      vertex -33 -20 -7.5
      vertex -30 -20 -7.5
    endloop
  endfacet
  facet normal 0 -1 0
    outer loop
      vertex 30 -20 -7.5
      vertex 33 -20 7.5
      vertex 30 -20 7.5
    endloop
  endfacet
  facet normal 0 -1 0
    outer loop
      vertex 33 -20 7.5
      vertex 30 -20 -7.5
      vertex 33 -20 -7.5
    endloop
  endfacet
  facet normal -1 0 0
    outer loop
      vertex 30 -20 -7.5
      vertex 30 16 7.5
      vertex 30 16 -7.5
    endloop
  endfacet
  facet normal -1 0 0
    outer loop
      vertex 30 16 7.5
      vertex 30 -20 -7.5
      vertex 30 -20 7.5
    endloop
  endfacet
  facet normal 1 0 0
    outer loop
      vertex -30 -20 7.5
      vertex -30 16 -7.5
      vertex -30 16 7.5
    endloop
  endfacet
  facet normal 1 0 0
    outer loop
      vertex -30 16 -7.5
      vertex -30 -20 7.5
      vertex -30 -20 -7.5
    endloop
  endfacet
  facet normal -0.5555697356722431 -0.8314699446192111 0
    outer loop
      vertex 28 19.464099884033203 -7.5
      vertex 28.43504524230957 19.173412322998047 7.5
      vertex 28 19.464099884033203 7.5
    endloop
  endfacet
  facet normal -0.5555697356722431 -0.8314699446192111 0
    outer loop
      vertex 28.43504524230957 19.173412322998047 7.5
      vertex 28 19.464099884033203 -7.5
      vertex 28.43504524230957 19.173412322998047 -7.5
    endloop
  endfacet
  facet normal -0.4422914397591054 -0.8968713856043227 0
    outer loop
      vertex 27.530733108520508 19.695518493652344 -7.5
      vertex 28 19.464099884033203 7.5
      vertex 27.530733108520508 19.695518493652344 7.5
    endloop
  endfacet
  facet normal -0.4422914397591054 -0.8968713856043227 0
    outer loop
      vertex 28 19.464099884033203 7.5
      vertex 27.530733108520508 19.695518493652344 -7.5
      vertex 28 19.464099884033203 -7.5
    endloop
  endfacet
  facet normal 0.4422914397591054 -0.8968713856043227 0
    outer loop
      vertex -28 19.464099884033203 -7.5
      vertex -27.530733108520508 19.695518493652344 7.5
      vertex -28 19.464099884033203 7.5
    endloop
  endfacet
  facet normal 0.4422914397591054 -0.8968713856043227 0
    outer loop
      vertex -27.530733108520508 19.695518493652344 7.5
      vertex -28 19.464099884033203 -7.5
      vertex -27.530733108520508 19.695518493652344 -7.5
    endloop
  endfacet
  facet normal 0.6593457932372825 -0.7518398266521259 0
    outer loop
      vertex -28.828426361083984 18.828426361083984 -7.5
      vertex -28.43504524230957 19.173412322998047 7.5
      vertex -28.828426361083984 18.828426361083984 7.5
    endloop
  endfacet
  facet normal 0.6593457932372825 -0.7518398266521259 0
    outer loop
      vertex -28.43504524230957 19.173412322998047 7.5
      vertex -28.828426361083984 18.828426361083984 -7.5
      vertex -28.43504524230957 19.173412322998047 -7.5
    endloop
  endfacet
  facet normal 0 -1 0
    outer loop
      vertex -26 20 -7.5
      vertex 26 20 7.5
      vertex -26 20 7.5
    endloop
  endfacet
  facet normal 0 -1 0
    outer loop
      vertex 26 20 7.5
      vertex -26 20 -7.5
      vertex 26 20 -7.5
    endloop
  endfacet
  facet normal 0.9978587825627341 -0.06540527549378619 0
    outer loop
      vertex -30 16 7.5
      vertex -29.965778350830078 16.522104263305664 -7.5
      vertex -29.965778350830078 16.522104263305664 7.5
    endloop
  endfacet
  facet normal 0.9978587825627341 -0.06540527549378619 0
    outer loop
      vertex -29.965778350830078 16.522104263305664 -7.5
      vertex -30 16 7.5
      vertex -30 16 -7.5
    endloop
  endfacet
  facet normal -0.9978587825627341 -0.06540527549378619 0
    outer loop
      vertex 30 16 -7.5
      vertex 29.965778350830078 16.522104263305664 7.5
      vertex 29.965778350830078 16.522104263305664 -7.5
    endloop
  endfacet
  facet normal -0.9978587825627341 -0.06540527549378619 0
    outer loop
      vertex 29.965778350830078 16.522104263305664 7.5
      vertex 30 16 -7.5
      vertex 30 16 7.5
    endloop
  endfacet
  facet normal -0.06540527549378619 -0.9978587825627341 0
    outer loop
      vertex 26 20 -7.5
      vertex 26.522104263305664 19.965778350830078 7.5
      vertex 26 20 7.5
    endloop
  endfacet
  facet normal -0.06540527549378619 -0.9978587825627341 0
    outer loop
      vertex 26.522104263305664 19.965778350830078 7.5
      vertex 26 20 -7.5
      vertex 26.522104263305664 19.965778350830078 -7.5
    endloop
  endfacet
  facet normal 0.06540527549378619 -0.9978587825627341 0
    outer loop
      vertex -26.522104263305664 19.965778350830078 -7.5
      vertex -26 20 7.5
      vertex -26.522104263305664 19.965778350830078 7.5
    endloop
  endfacet
  facet normal 0.06540527549378619 -0.9978587825627341 0
    outer loop
      vertex -26 20 7.5
      vertex -26.522104263305664 19.965778350830078 -7.5
      vertex -26 20 -7.5
    endloop
  endfacet
  facet normal 0.8314699446192111 -0.5555697356722431 0
    outer loop
      vertex -29.464099884033203 18 7.5
      vertex -29.173412322998047 18.43504524230957 -7.5
      vertex -29.173412322998047 18.43504524230957 7.5
    endloop
  endfacet
  facet normal 0.8314699446192111 -0.5555697356722431 0
    outer loop
      vertex -29.173412322998047 18.43504524230957 -7.5
      vertex -29.464099884033203 18 7.5
      vertex -29.464099884033203 18 -7.5
    endloop
  endfacet
  facet normal -0.8314699446192111 -0.5555697356722431 0
    outer loop
      vertex 29.464099884033203 18 -7.5
      vertex 29.173412322998047 18.43504524230957 7.5
      vertex 29.173412322998047 18.43504524230957 -7.5
    endloop
  endfacet
  facet normal -0.8314699446192111 -0.5555697356722431 0
    outer loop
      vertex 29.173412322998047 18.43504524230957 7.5
      vertex 29.464099884033203 18 -7.5
      vertex 29.464099884033203 18 7.5
    endloop
  endfacet
  facet normal -0.9469308580921179 -0.32143731891758515 0
    outer loop
      vertex 29.86370277404785 17.035274505615234 -7.5
      vertex 29.695518493652344 17.530733108520508 7.5
      vertex 29.695518493652344 17.530733108520508 -7.5
    endloop
  endfacet
  facet normal -0.9469308580921179 -0.32143731891758515 0
    outer loop
      vertex 29.695518493652344 17.530733108520508 7.5
      vertex 29.86370277404785 17.035274505615234 -7.5
      vertex 29.86370277404785 17.035274505615234 7.5
    endloop
  endfacet
  facet normal 0.8968713856043227 -0.4422914397591054 0
    outer loop
      vertex -29.695518493652344 17.530733108520508 7.5
      vertex -29.464099884033203 18 -7.5
      vertex -29.464099884033203 18 7.5
    endloop
  endfacet
  facet normal 0.8968713856043227 -0.4422914397591054 0
    outer loop
      vertex -29.464099884033203 18 -7.5
      vertex -29.695518493652344 17.530733108520508 7.5
      vertex -29.695518493652344 17.530733108520508 -7.5
    endloop
  endfacet
  facet normal 0.19508971350586146 -0.980785401443252 0
    outer loop
      vertex -27.035274505615234 19.86370277404785 -7.5
      vertex -26.522104263305664 19.965778350830078 7.5
      vertex -27.035274505615234 19.86370277404785 7.5
    endloop
  endfacet
  facet normal 0.19508971350586146 -0.980785401443252 0
    outer loop
      vertex -26.522104263305664 19.965778350830078 7.5
      vertex -27.035274505615234 19.86370277404785 -7.5
      vertex -26.522104263305664 19.965778350830078 -7.5
    endloop
  endfacet
  facet normal -0.980785401443252 -0.19508971350586146 0
    outer loop
      vertex 29.965778350830078 16.522104263305664 -7.5
      vertex 29.86370277404785 17.035274505615234 7.5
      vertex 29.86370277404785 17.035274505615234 -7.5
    endloop
  endfacet
  facet normal -0.980785401443252 -0.19508971350586146 0
    outer loop
      vertex 29.86370277404785 17.035274505615234 7.5
      vertex 29.965778350830078 16.522104263305664 -7.5
      vertex 29.965778350830078 16.522104263305664 7.5
    endloop
  endfacet
  facet normal -0.7518398266521259 -0.6593457932372825 0
    outer loop
      vertex 29.173412322998047 18.43504524230957 -7.5
      vertex 28.828426361083984 18.828426361083984 7.5
      vertex 28.828426361083984 18.828426361083984 -7.5
    endloop
  endfacet
  facet normal -0.7518398266521259 -0.6593457932372825 0
    outer loop
      vertex 28.828426361083984 18.828426361083984 7.5
      vertex 29.173412322998047 18.43504524230957 -7.5
      vertex 29.173412322998047 18.43504524230957 7.5
    endloop
  endfacet
  facet normal -0.6593457932372825 -0.7518398266521259 0
    outer loop
      vertex 28.43504524230957 19.173412322998047 -7.5
      vertex 28.828426361083984 18.828426361083984 7.5
      vertex 28.43504524230957 19.173412322998047 7.5
    endloop
  endfacet
  facet normal -0.6593457932372825 -0.7518398266521259 0
    outer loop
      vertex 28.828426361083984 18.828426361083984 7.5
      vertex 28.43504524230957 19.173412322998047 -7.5
      vertex 28.828426361083984 18.828426361083984 -7.5
    endloop
  endfacet
  facet normal 0.7518398266521259 -0.6593457932372825 0
    outer loop
      vertex -29.173412322998047 18.43504524230957 7.5
      vertex -28.828426361083984 18.828426361083984 -7.5
      vertex -28.828426361083984 18.828426361083984 7.5
    endloop
  endfacet
  facet normal 0.7518398266521259 -0.6593457932372825 0
    outer loop
      vertex -28.828426361083984 18.828426361083984 -7.5
      vertex -29.173412322998047 18.43504524230957 7.5
      vertex -29.173412322998047 18.43504524230957 -7.5
    endloop
  endfacet
  facet normal 0.32143731891758515 -0.9469308580921179 0
    outer loop
      vertex -27.530733108520508 19.695518493652344 -7.5
      vertex -27.035274505615234 19.86370277404785 7.5
      vertex -27.530733108520508 19.695518493652344 7.5
    endloop
  endfacet
  facet normal 0.32143731891758515 -0.9469308580921179 0
    outer loop
      vertex -27.035274505615234 19.86370277404785 7.5
      vertex -27.530733108520508 19.695518493652344 -7.5
      vertex -27.035274505615234 19.86370277404785 -7.5
    endloop
  endfacet
  facet normal -0.19508971350586146 -0.980785401443252 0
    outer loop
      vertex 26.522104263305664 19.965778350830078 -7.5
      vertex 27.035274505615234 19.86370277404785 7.5
      vertex 26.522104263305664 19.965778350830078 7.5
    endloop
  endfacet
  facet normal -0.19508971350586146 -0.980785401443252 0
    outer loop
      vertex 27.035274505615234 19.86370277404785 7.5
      vertex 26.522104263305664 19.965778350830078 -7.5
      vertex 27.035274505615234 19.86370277404785 -7.5
    endloop
  endfacet
  facet normal -0.8968713856043227 -0.4422914397591054 0
    outer loop
      vertex 29.695518493652344 17.530733108520508 -7.5
      vertex 29.464099884033203 18 7.5
      vertex 29.464099884033203 18 -7.5
    endloop
  endfacet
  facet normal -0.8968713856043227 -0.4422914397591054 0
    outer loop
      vertex 29.464099884033203 18 7.5
      vertex 29.695518493652344 17.530733108520508 -7.5
      vertex 29.695518493652344 17.530733108520508 7.5
    endloop
  endfacet
  facet normal -0.32143731891758515 -0.9469308580921179 0
    outer loop
      vertex 27.035274505615234 19.86370277404785 -7.5
      vertex 27.530733108520508 19.695518493652344 7.5
      vertex 27.035274505615234 19.86370277404785 7.5
    endloop
  endfacet
  facet normal -0.32143731891758515 -0.9469308580921179 0
    outer loop
      vertex 27.530733108520508 19.695518493652344 7.5
      vertex 27.035274505615234 19.86370277404785 -7.5
      vertex 27.530733108520508 19.695518493652344 -7.5
    endloop
  endfacet
  facet normal 0.5555697356722431 -0.8314699446192111 0
    outer loop
      vertex -28.43504524230957 19.173412322998047 -7.5
      vertex -28 19.464099884033203 7.5
      vertex -28.43504524230957 19.173412322998047 7.5
    endloop
  endfacet
  facet normal 0.5555697356722431 -0.8314699446192111 0
    outer loop
      vertex -28 19.464099884033203 7.5
      vertex -28.43504524230957 19.173412322998047 -7.5
      vertex -28 19.464099884033203 -7.5
    endloop
  endfacet
  facet normal 0.9469308580921179 -0.32143731891758515 0
    outer loop
      vertex -29.86370277404785 17.035274505615234 7.5
      vertex -29.695518493652344 17.530733108520508 -7.5
      vertex -29.695518493652344 17.530733108520508 7.5
    endloop
  endfacet
  facet normal 0.9469308580921179 -0.32143731891758515 0
    outer loop
      vertex -29.695518493652344 17.530733108520508 -7.5
      vertex -29.86370277404785 17.035274505615234 7.5
      vertex -29.86370277404785 17.035274505615234 -7.5
    endloop
  endfacet
  facet normal 0.980785401443252 -0.19508971350586146 0
    outer loop
      vertex -29.965778350830078 16.522104263305664 7.5
      vertex -29.86370277404785 17.035274505615234 -7.5
      vertex -29.86370277404785 17.035274505615234 7.5
    endloop
  endfacet
  facet normal 0.980785401443252 -0.19508971350586146 0
    outer loop
      vertex -29.86370277404785 17.035274505615234 -7.5
      vertex -29.965778350830078 16.522104263305664 7.5
      vertex -29.965778350830078 16.522104263305664 -7.5
    endloop
  endfacet
endsolid OpenSCAD_Model
